The Good, the Bad and the Ugly (1966)

Director: Sergio Leone

The Good, the Bad and the Ugly (Italian: Il buono, il brutto, il cattivo) is a 1966 Italian/Spanish epic spaghetti western film directed by Sergio Leone, starring Clint Eastwood, Lee Van Cleef, and Eli Wallach in the title roles. The screenplay was written by Age & Scarpelli, Luciano Vincenzoni and Leone, based on a story by Vincenzoni and Leone. Director of photography Tonino Delli Colli, was responsible for the film's sweeping widescreen cinematography and Ennio Morricone composed the famous film score, including its main theme. It is the third and final film in the Dollars Trilogy following A Fistful of Dollars (1964) and For a Few Dollars More (1965). The plot revolves around three gunslingers competing to find a fortune in buried Confederate gold amid the violent chaos of gunfights, hangings, American Civil War battles and prison camps.

Today, the film is regarded by many critics as a classic. It remains one of the most popular and well known westerns and is considered to be one of the greatest of its genre. It is in Time's "100 Greatest movies of the last century" as selected by critics Richard Corliss and Richard Schickel. In addition, it used to be one of the few films which enjoyed a 100% certified fresh rating on Rotten Tomatoes, although the rating has since been changed to 98% due to the inclusion of a single negative review by Time Magazine on February 9, 1968. The Good, the Bad and the Ugly has been described as European cinema's best representation of the Western genre film, and Quentin Tarantino has called it "the best-directed film of all time.". This was reflected in his vote for a 2002 Sight & Sound magazine poll, in which he voted for The Good, the Bad and the Ugly as his choice for the best film ever made.

Empire magazine added The Good, the Bad and the Ugly to their Masterpiece collection in the September 2007 issue and in their poll of "The 500 Greatest Movies," "The Good, the Bad and the Ugly" was voted in at number 25.

It currently holds the fourth spot on the Internet Movie Database's Top 250 movies as voted by their users, with over 175,000 votes cast by regular users.

Media Info:
General
Complete name                    : J:\Seeding\The Good, the Bad and the Ugly (1966)[DVDRip][big_dad_e™]\The Good, the Bad and the Ugly (1966)[DVDRip][big_dad_e™].avi
Format                           : AVI
Format/Info                      : Audio Video Interleave
Format profile                   : OpenDML
File size                        : 1.59 GiB
Duration                         : 2h 42mn
Overall bit rate                 : 1 402 Kbps
Movie name                       : GOOD_BAD_UGLY_16X9_LB.Title1.DVDRip
Writing application              : Lavf52.78.4
Original source form/Name        : GOOD_BAD_UGLY_16X9_LB

Video
ID                               : 0
Format                           : MPEG-4 Visual
Format profile                   : Advanced Simple@L5
Format settings, BVOP            : 2
Format settings, QPel            : No
Format settings, GMC             : No warppoints
Format settings, Matrix          : Default (H.263)
Muxing mode                      : Packed bitstream
Codec ID                         : XVID
Codec ID/Hint                    : XviD
Duration                         : 2h 42mn
Bit rate                         : 436 Kbps
Width                            : 720 pixels
Height                           : 310 pixels
Display aspect ratio             : 2.35:1
Frame rate                       : 23.976 fps
Color space                      : YUV
Chroma subsampling               : 4:2:0
Bit depth                        : 8 bits
Scan type                        : Progressive
Compression mode                 : Lossy
Bits/(Pixel*Frame)               : 0.081
Stream size                      : 507 MiB (31%)
Writing library                  : XviD 

Audio
ID                               : 1
Format                           : MPEG Audio
Format version                   : Version 1
Format profile                   : Layer 3
Mode                             : Joint stereo
Mode extension                   : MS Stereo
Codec ID                         : 55
Codec ID/Hint                    : MP3
Duration                         : 2h 42mn
Bit rate mode                    : Constant
Bit rate                         : 320 Kbps
Channel(s)                       : 2 channels
Sampling rate                    : 48.0 KHz
Compression mode                 : Lossy
Stream size                      : 4.19 MiB (0%)
Alignment                        : Aligned on interleaves
Interleave, duration             : 778 ms (18.66 video frames)
Writing library                  : LAME3.98.4

File Scan:
Malwarebytes' Anti-Malware 1.50.1.1100
www.malwarebytes.org

Database version: 6150
3/24/2011 2:22:49 AM
mbam-log-2011-03-24 (02-22-49).txt

Scan type: Quick scan
Objects scanned: 5
Time elapsed: 2 minute(s), 0 second(s)

Memory Processes Infected: 0
Memory Modules Infected: 0
Registry Keys Infected: 0
Registry Values Infected: 0
Registry Data Items Infected: 0
Folders Infected: 0
Files Infected: 0

Memory Processes Infected:
(No malicious items detected)

Memory Modules Infected:
(No malicious items detected)

Registry Keys Infected:
(No malicious items detected)

Registry Values Infected:
(No malicious items detected)

Registry Data Items Infected:
(No malicious items detected)

Folders Infected:
(No malicious items detected)

Files Infected:
(No malicious items detected)

When using TPB please read these important notes:
  
01- Anti-malware apps may warn about keygens, patches, cracks, etc., because of 
    their capabilities, (generating codes, etc.). Sometimes they're added to 
    the virus/spyware database and will be detected as malware. If you don't trust
    the keygens, patches, cracks, etc., don't use them. 
    
02- Before running .exe-files, keygens, patches, cracks, etc., always check first 
    if they can be unpacked. Often some third party added a virus to the 
    original file, repacked it and uploaded it again.

03- Letting anti-malware apps send scan results to their companies can cause
    keygens, patches, cracks, etc., to be added to their virus-database.

04- Firewalls which are set to automatically determine connections will allow 
    apps & malware!. Avoid this by manually configuring your firewall.

05- Usually (new) torrents with many downloads and seeders in a brief period is
    suspicious! Torrents with the Skull & Crossbones icon are trusted.

06- Some people use multiple accounts and post fake comments 
    and/or files trying to spread confusion. They seldom seriously
    comment or have any torrents, or a just a few to look passable.

07- Clicking on unknown links can cause malware to be installed on your machine.
  
08- In general often there are more fake and negative comments than reliable and
    positive comments.

09- In some countries uploading/downloading copyright protected material is 
    forbidden, but showing some appreciation to reliable up-loaders is not.

10- Posting fake and negative comments or fake/infected uploads on TPB can result
    in getting banned from TPB!

Requests?  Find me on SuprBay. http://forum.suprbay.org
 

For reporting bad or suspicious torrents:  
http://forum.suprbay.org/forumdisplay.php?fid=29

For more of my torrents: 
https://thepiratebay.org/user/big_dad_e/  (Secured)

All torrents scanned with:
Norton Anti-virus
Malwarebytes' Anti-malware
 
http://www.pirate-party.us/

ALWAYS SEED & THANKS SEEDERS!